<mxfile host="app.diagrams.net" agent="Mozilla/5.0 (Windows NT 10.0; Win64; x64) AppleWebKit/537.36 (KHTML, like Gecko) Chrome/137.0.0.0 Safari/537.36 Edg/137.0.0.0" version="27.1.1">
  <diagram name="Page-1" id="-HTLVWcaMHLSp_7hvyof">
    <mxGraphModel dx="798" dy="1648" grid="1" gridSize="10" guides="1" tooltips="1" connect="1" arrows="1" fold="1" page="1" pageScale="1" pageWidth="827" pageHeight="1169" math="0" shadow="0">
      <root>
        <mxCell id="0" />
        <mxCell id="1" parent="0" />
        <mxCell id="eUAIe-fGZ2Fo63hcymHw-2" value="" style="rounded=0;whiteSpace=wrap;html=1;" parent="1" vertex="1">
          <mxGeometry x="425" y="-30" width="255" height="810" as="geometry" />
        </mxCell>
        <mxCell id="zpSfBSZsR34E1BH9NEWc-2" value="User" style="shape=umlActor;verticalLabelPosition=bottom;verticalAlign=top;html=1;outlineConnect=0;" parent="1" vertex="1">
          <mxGeometry x="140" y="306" width="90" height="134" as="geometry" />
        </mxCell>
        <mxCell id="zpSfBSZsR34E1BH9NEWc-3" value="&lt;b&gt;&lt;font style=&quot;font-size: 14px;&quot;&gt;Gym And Fitness App&lt;/font&gt;&lt;/b&gt;" style="text;html=1;align=center;verticalAlign=middle;whiteSpace=wrap;rounded=0;" parent="1" vertex="1">
          <mxGeometry x="481" y="-20" width="164" height="30" as="geometry" />
        </mxCell>
        <mxCell id="zpSfBSZsR34E1BH9NEWc-5" value="&lt;font style=&quot;font-size: 14px;&quot;&gt;Register&lt;/font&gt;" style="ellipse;whiteSpace=wrap;html=1;" parent="1" vertex="1">
          <mxGeometry x="520" y="40" width="90" height="40" as="geometry" />
        </mxCell>
        <mxCell id="zpSfBSZsR34E1BH9NEWc-8" value="&lt;font style=&quot;font-size: 14px;&quot;&gt;Login&lt;/font&gt;" style="ellipse;whiteSpace=wrap;html=1;" parent="1" vertex="1">
          <mxGeometry x="521" y="100" width="80" height="40" as="geometry" />
        </mxCell>
        <mxCell id="zpSfBSZsR34E1BH9NEWc-10" value="&lt;font style=&quot;font-size: 14px;&quot;&gt;Calculate&lt;/font&gt;&lt;div&gt;&lt;font size=&quot;3&quot;&gt;BMI&lt;/font&gt;&lt;/div&gt;" style="ellipse;whiteSpace=wrap;html=1;" parent="1" vertex="1">
          <mxGeometry x="520" y="154" width="80" height="60" as="geometry" />
        </mxCell>
        <mxCell id="zpSfBSZsR34E1BH9NEWc-13" value="&lt;font style=&quot;font-size: 14px;&quot;&gt;Track Fitness Progress&lt;/font&gt;" style="ellipse;whiteSpace=wrap;html=1;" parent="1" vertex="1">
          <mxGeometry x="520" y="230" width="100" height="60" as="geometry" />
        </mxCell>
        <mxCell id="zpSfBSZsR34E1BH9NEWc-14" value="&lt;font style=&quot;font-size: 14px;&quot;&gt;Create&amp;nbsp;&lt;/font&gt;&lt;div&gt;&lt;font size=&quot;3&quot;&gt;Diet Plan&lt;/font&gt;&lt;/div&gt;" style="ellipse;whiteSpace=wrap;html=1;" parent="1" vertex="1">
          <mxGeometry x="525" y="306" width="90" height="60" as="geometry" />
        </mxCell>
        <mxCell id="zpSfBSZsR34E1BH9NEWc-15" value="&lt;font style=&quot;font-size: 14px;&quot;&gt;Track Water&amp;nbsp;&lt;/font&gt;&lt;div&gt;&lt;font size=&quot;3&quot;&gt;Intake&lt;/font&gt;&lt;/div&gt;" style="ellipse;whiteSpace=wrap;html=1;" parent="1" vertex="1">
          <mxGeometry x="511" y="470" width="110" height="54" as="geometry" />
        </mxCell>
        <mxCell id="zpSfBSZsR34E1BH9NEWc-16" value="&lt;font style=&quot;font-size: 14px;&quot;&gt;Manage Fitness Profile&lt;/font&gt;" style="ellipse;whiteSpace=wrap;html=1;" parent="1" vertex="1">
          <mxGeometry x="511" y="542" width="110" height="54" as="geometry" />
        </mxCell>
        <mxCell id="zpSfBSZsR34E1BH9NEWc-17" value="&lt;font style=&quot;font-size: 14px;&quot;&gt;Create Workout Plan&lt;/font&gt;" style="ellipse;whiteSpace=wrap;html=1;" parent="1" vertex="1">
          <mxGeometry x="520" y="386" width="100" height="60" as="geometry" />
        </mxCell>
        <mxCell id="zpSfBSZsR34E1BH9NEWc-18" value="&lt;font style=&quot;font-size: 14px;&quot;&gt;Logout&lt;/font&gt;" style="ellipse;whiteSpace=wrap;html=1;" parent="1" vertex="1">
          <mxGeometry x="531" y="701" width="85" height="50" as="geometry" />
        </mxCell>
        <mxCell id="zpSfBSZsR34E1BH9NEWc-19" value="&lt;font style=&quot;font-size: 14px;&quot;&gt;Get Premium Membership&lt;/font&gt;" style="ellipse;whiteSpace=wrap;html=1;" parent="1" vertex="1">
          <mxGeometry x="521" y="621" width="100" height="60" as="geometry" />
        </mxCell>
        <mxCell id="zpSfBSZsR34E1BH9NEWc-29" value="" style="endArrow=none;html=1;rounded=0;entryX=0;entryY=0.5;entryDx=0;entryDy=0;" parent="1" target="zpSfBSZsR34E1BH9NEWc-5" edge="1">
          <mxGeometry width="50" height="50" relative="1" as="geometry">
            <mxPoint x="240" y="360" as="sourcePoint" />
            <mxPoint x="360" y="330" as="targetPoint" />
          </mxGeometry>
        </mxCell>
        <mxCell id="zpSfBSZsR34E1BH9NEWc-30" value="" style="endArrow=none;html=1;rounded=0;entryX=0;entryY=0.5;entryDx=0;entryDy=0;" parent="1" edge="1">
          <mxGeometry width="50" height="50" relative="1" as="geometry">
            <mxPoint x="240" y="360" as="sourcePoint" />
            <mxPoint x="520" y="120" as="targetPoint" />
          </mxGeometry>
        </mxCell>
        <mxCell id="zpSfBSZsR34E1BH9NEWc-31" value="" style="endArrow=none;html=1;rounded=0;entryX=0;entryY=0.5;entryDx=0;entryDy=0;" parent="1" target="zpSfBSZsR34E1BH9NEWc-10" edge="1">
          <mxGeometry width="50" height="50" relative="1" as="geometry">
            <mxPoint x="240" y="360" as="sourcePoint" />
            <mxPoint x="520" y="120" as="targetPoint" />
          </mxGeometry>
        </mxCell>
        <mxCell id="zpSfBSZsR34E1BH9NEWc-32" value="" style="endArrow=none;html=1;rounded=0;entryX=0;entryY=0.5;entryDx=0;entryDy=0;" parent="1" edge="1">
          <mxGeometry width="50" height="50" relative="1" as="geometry">
            <mxPoint x="241" y="361" as="sourcePoint" />
            <mxPoint x="520" y="266" as="targetPoint" />
          </mxGeometry>
        </mxCell>
        <mxCell id="zpSfBSZsR34E1BH9NEWc-33" value="" style="endArrow=none;html=1;rounded=0;entryX=0;entryY=0.5;entryDx=0;entryDy=0;" parent="1" target="zpSfBSZsR34E1BH9NEWc-14" edge="1">
          <mxGeometry width="50" height="50" relative="1" as="geometry">
            <mxPoint x="240" y="360" as="sourcePoint" />
            <mxPoint x="759" y="330" as="targetPoint" />
          </mxGeometry>
        </mxCell>
        <mxCell id="zpSfBSZsR34E1BH9NEWc-34" value="" style="endArrow=none;html=1;rounded=0;entryX=0;entryY=0.5;entryDx=0;entryDy=0;" parent="1" target="zpSfBSZsR34E1BH9NEWc-17" edge="1">
          <mxGeometry width="50" height="50" relative="1" as="geometry">
            <mxPoint x="240" y="360" as="sourcePoint" />
            <mxPoint x="855" y="400" as="targetPoint" />
          </mxGeometry>
        </mxCell>
        <mxCell id="zpSfBSZsR34E1BH9NEWc-35" value="" style="endArrow=none;html=1;rounded=0;" parent="1" edge="1">
          <mxGeometry width="50" height="50" relative="1" as="geometry">
            <mxPoint x="240" y="360" as="sourcePoint" />
            <mxPoint x="510" y="497" as="targetPoint" />
          </mxGeometry>
        </mxCell>
        <mxCell id="zpSfBSZsR34E1BH9NEWc-37" value="" style="endArrow=none;html=1;rounded=0;entryX=0;entryY=0.5;entryDx=0;entryDy=0;" parent="1" target="zpSfBSZsR34E1BH9NEWc-16" edge="1">
          <mxGeometry width="50" height="50" relative="1" as="geometry">
            <mxPoint x="240" y="360" as="sourcePoint" />
            <mxPoint x="670" y="667" as="targetPoint" />
          </mxGeometry>
        </mxCell>
        <mxCell id="zpSfBSZsR34E1BH9NEWc-38" value="" style="endArrow=none;html=1;rounded=0;entryX=0;entryY=0.5;entryDx=0;entryDy=0;" parent="1" target="zpSfBSZsR34E1BH9NEWc-19" edge="1">
          <mxGeometry width="50" height="50" relative="1" as="geometry">
            <mxPoint x="240" y="360" as="sourcePoint" />
            <mxPoint x="641" y="749" as="targetPoint" />
          </mxGeometry>
        </mxCell>
        <mxCell id="zpSfBSZsR34E1BH9NEWc-39" value="" style="endArrow=none;html=1;rounded=0;entryX=0;entryY=0.5;entryDx=0;entryDy=0;" parent="1" edge="1">
          <mxGeometry width="50" height="50" relative="1" as="geometry">
            <mxPoint x="242" y="361" as="sourcePoint" />
            <mxPoint x="533" y="717" as="targetPoint" />
          </mxGeometry>
        </mxCell>
        <mxCell id="gMCr7C9V63HnLDEMSgMh-1" value="" style="endArrow=none;html=1;rounded=0;" edge="1" parent="1">
          <mxGeometry width="50" height="50" relative="1" as="geometry">
            <mxPoint x="100" y="400" as="sourcePoint" />
            <mxPoint x="100" y="360" as="targetPoint" />
            <Array as="points">
              <mxPoint x="100" y="360" />
            </Array>
          </mxGeometry>
        </mxCell>
        <mxCell id="gMCr7C9V63HnLDEMSgMh-2" value="" style="endArrow=none;html=1;rounded=0;" edge="1" parent="1">
          <mxGeometry width="50" height="50" relative="1" as="geometry">
            <mxPoint x="730" y="400" as="sourcePoint" />
            <mxPoint x="730" y="360" as="targetPoint" />
            <Array as="points">
              <mxPoint x="730" y="360" />
            </Array>
          </mxGeometry>
        </mxCell>
        <mxCell id="gMCr7C9V63HnLDEMSgMh-7" value="" style="endArrow=none;html=1;rounded=0;" edge="1" parent="1">
          <mxGeometry width="50" height="50" relative="1" as="geometry">
            <mxPoint x="490" y="828" as="sourcePoint" />
            <mxPoint x="520" y="828" as="targetPoint" />
          </mxGeometry>
        </mxCell>
        <mxCell id="gMCr7C9V63HnLDEMSgMh-8" value="" style="endArrow=none;html=1;rounded=0;" edge="1" parent="1">
          <mxGeometry width="50" height="50" relative="1" as="geometry">
            <mxPoint x="490" y="-70" as="sourcePoint" />
            <mxPoint x="520" y="-70" as="targetPoint" />
          </mxGeometry>
        </mxCell>
      </root>
    </mxGraphModel>
  </diagram>
</mxfile>
